<svg xmlns="http://www.w3.org/2000/svg" width="16" height="16" fill="currentColor" viewBox="0 0 24 24">
  <path d="M1 0a1 1 0 0 0-.707.293 1 1 0 0 0 0 1.414l4.14 4.14C3.119 6.505 1.864 7.275.759 8.25A1 1 0 0 0 .67 9.662a1 1 0 0 0 1.412.088c1.144-1.012 2.483-1.759 3.877-2.377l2.332 2.332c-1.42.471-2.776 1.112-3.932 2.078a1 1 0 0 0-.127 1.408 1 1 0 0 0 1.409.125c1.221-1.021 2.684-1.682 4.234-2.027l2.818 2.818c-1.646-.163-3.331.186-4.742 1.188a1 1 0 0 0-.236 1.394 1 1 0 0 0 1.394.237 4.992 4.992 0 0 1 5.791 0 1 1 0 0 0 .524-.088l6.869 6.869a1 1 0 0 0 1.414 0 1 1 0 0 0 0-1.414l-22-22A1 1 0 0 0 1 0Zm9.629 4.053a1 1 0 0 0-.916 1.078 1 1 0 0 0 1.078.916A14.996 14.996 0 0 1 21.918 9.75a1 1 0 0 0 1.412-.088 1 1 0 0 0-.088-1.412A17.005 17.005 0 0 0 10.63 4.053Zm6.53 6.11a1 1 0 0 0-1.337.458 1 1 0 0 0 .46 1.338c.743.363 1.44.818 2.072 1.354a1 1 0 0 0 1.408-.116 1 1 0 0 0-.116-1.41 11.934 11.934 0 0 0-2.488-1.625zM12 19a1 1 0 0 0-1 1 1 1 0 0 0 1 1h.01a1 1 0 0 0 1-1 1 1 0 0 0-1-1z"/>
</svg>