<?xml version="1.0" encoding="UTF-8" standalone="no"?>
<!-- Created with Inkscape (http://www.inkscape.org/) -->

<svg
   width="256"
   height="256"
   viewBox="0 0 67.733332 67.733333"
   version="1.1"
   id="svg345"
   xml:space="preserve"
   inkscape:version="1.2.2 (1:1.2.2+202212051552+b0a8486541)"
   sodipodi:docname="icon.svg"
   inkscape:export-filename="256x256.png"
   inkscape:export-xdpi="96"
   inkscape:export-ydpi="96"
   xmlns:inkscape="http://www.inkscape.org/namespaces/inkscape"
   xmlns:sodipodi="http://sodipodi.sourceforge.net/DTD/sodipodi-0.dtd"
   xmlns="http://www.w3.org/2000/svg"
   xmlns:svg="http://www.w3.org/2000/svg"><sodipodi:namedview
     id="namedview347"
     pagecolor="#ffffff"
     bordercolor="#666666"
     borderopacity="1.0"
     inkscape:showpageshadow="2"
     inkscape:pageopacity="0.0"
     inkscape:pagecheckerboard="0"
     inkscape:deskcolor="#d1d1d1"
     inkscape:document-units="mm"
     showgrid="false"
     inkscape:zoom="2.9387545"
     inkscape:cx="142.74755"
     inkscape:cy="122.84115"
     inkscape:window-width="1920"
     inkscape:window-height="1020"
     inkscape:window-x="0"
     inkscape:window-y="32"
     inkscape:window-maximized="1"
     inkscape:current-layer="layer1" /><defs
     id="defs342"><filter
       style="color-interpolation-filters:sRGB;"
       inkscape:label="Drop Shadow"
       id="filter3126"
       x="-0.044000759"
       y="-0.042284875"
       width="1.0984779"
       height="1.0946376"><feFlood
         flood-opacity="0.827451"
         flood-color="rgb(0,0,0)"
         result="flood"
         id="feFlood3116" /><feComposite
         in="flood"
         in2="SourceGraphic"
         operator="in"
         result="composite1"
         id="feComposite3118" /><feGaussianBlur
         in="composite1"
         stdDeviation="0.7"
         result="blur"
         id="feGaussianBlur3120" /><feOffset
         dx="0.4"
         dy="0.4"
         result="offset"
         id="feOffset3122" /><feComposite
         in="SourceGraphic"
         in2="offset"
         operator="over"
         result="composite2"
         id="feComposite3124" /></filter></defs><g
     inkscape:label="Layer 1"
     inkscape:groupmode="layer"
     id="layer1"><rect
       style="opacity:0.937663;fill:#2e419e;fill-opacity:1;stroke-width:2.62432;stroke-linecap:round;stroke-linejoin:round;stroke-miterlimit:69.2"
       id="rect642"
       width="67.73333"
       height="67.73333"
       x="0"
       y="-8.8817842e-16" /><path
       style="fill:#e6e6e6;fill-opacity:1;stroke-width:0.264583;filter:url(#filter3126)"
       d="m 16.898027,53.225475 c -1.24695,-0.626491 -2.12194,-1.995728 -2.12194,-3.320539 0,-0.979802 4.617386,-23.283845 4.922391,-23.777352 0.169126,-0.273652 8.760073,-0.29434 8.923753,-0.02149 0.06547,0.10914 -0.722172,4.167171 -1.75032,9.017845 -1.569632,7.405326 -1.808934,8.857653 -1.492488,9.057929 0.614328,0.388803 14.079439,0.31129 14.610879,-0.08411 0.336274,-0.250193 1.773285,-5.482098 1.773285,-6.456225 0,-0.05071 -1.589598,-0.09221 -3.532439,-0.09221 h -3.532437 l -1.763518,-3.902604 c -0.969935,-2.146432 -1.761588,-3.991901 -1.759229,-4.101041 0.0024,-0.109141 4.647727,-0.198438 10.323039,-0.198438 h 10.31875 v 0.463062 c 0,0.981138 -4.202435,19.611799 -4.594965,20.37087 -0.587383,1.135872 -2.707339,2.924132 -3.839245,3.238542 -1.869797,0.519372 -25.408755,0.346744 -26.485516,-0.194239 z m 3.646552,-30.897937 c -0.208172,-0.208172 0.688793,-3.835537 1.17562,-4.754256 1.805362,-3.406999 2.54797,-3.571874 16.087945,-3.571874 h 11.323861 l 1.965762,4.034895 c 1.081169,2.219193 1.916559,4.124193 1.856425,4.233333 -0.122233,0.221848 -32.188379,0.279137 -32.409613,0.0579 z"
       id="path2826"
       transform="matrix(1.1840563,0,0,1.1840563,-6.470183,-6.4701861)" /></g></svg>
